<svg width="306" height="48" viewBox="0 0 306 48" fill="none" xmlns="http://www.w3.org/2000/svg">
<path d="M85.5063 24.1875C87.475 23.2688 88.7437 21.7375 88.7437 19.375C88.7437 15.7875 85.4625 13.25 80.7375 13.25H69.8438V36H81.2188C86.1188 36 89.5313 33.3313 89.5313 29.7C89.5313 26.9438 87.7375 24.8875 85.5063 24.1875ZM80.7375 17.4063C82.4875 17.4063 83.7125 18.4563 83.7125 19.9C83.7125 21.3438 82.4875 22.35 80.7375 22.35H74.875V17.4063H80.7375ZM74.875 31.8438V26.2875H81.2188C83.1875 26.2875 84.5 27.425 84.5 29.0875C84.5 30.75 83.1875 31.8438 81.2188 31.8438H74.875Z" fill="white"/>
<path d="M104.403 36V17.8438H112.278V13.25H91.4966V17.8438H99.3716V36H104.403Z" fill="white"/>
<path d="M125.768 36.4375C132.899 36.4375 137.931 31.5375 137.931 24.625C137.931 17.7125 132.899 12.8125 125.768 12.8125C118.637 12.8125 113.606 17.7125 113.606 24.625C113.606 31.5375 118.637 36.4375 125.768 36.4375ZM125.768 31.8438C121.656 31.8438 118.856 28.9125 118.856 24.625C118.856 20.3375 121.656 17.4063 125.768 17.4063C129.881 17.4063 132.681 20.3375 132.681 24.625C132.681 28.9125 129.881 31.8438 125.768 31.8438Z" fill="white"/>
<path d="M152.848 36.4375C157.617 36.4375 162.123 33.9875 163.83 29.2188L159.105 28.4313C158.098 30.4438 155.867 31.8438 153.155 31.8438C149.086 31.8438 146.242 28.8688 146.242 24.625C146.242 20.3813 149.086 17.4063 153.155 17.4063C155.78 17.4063 157.967 18.7625 158.93 20.7313L163.655 19.9438C161.992 15.2625 157.705 12.8125 152.848 12.8125C145.892 12.8125 140.992 17.7563 140.992 24.625C140.992 31.4938 145.892 36.4375 152.848 36.4375Z" fill="white"/>
<path d="M177.633 36V17.8438H185.508V13.25H164.727V17.8438H172.602V36H177.633Z" fill="white"/>
<path d="M210.461 24.3625C210.461 17.8 205.561 12.8125 198.648 12.8125C191.736 12.8125 186.836 17.7563 186.836 24.625C186.836 31.4938 191.736 36.4375 198.648 36.4375C203.373 36.4375 207.836 34.2063 209.542 29.875L204.817 29.0875C203.723 30.7063 201.623 31.8438 198.954 31.8438C195.104 31.8438 192.567 29.4813 192.086 25.9813H210.373C210.417 25.5 210.461 24.975 210.461 24.3625ZM198.648 17.1875C201.798 17.1875 204.161 19.2 204.992 22.0438H192.392C193.223 19.1125 195.586 17.1875 198.648 17.1875Z" fill="white"/>
<path d="M219.412 44.9688V32.5438C220.987 34.425 223.831 36.4375 227.812 36.4375C234.331 36.4375 238.925 31.4938 238.925 24.625C238.925 17.7563 234.331 12.8125 227.812 12.8125C223.656 12.8125 220.769 15 219.194 16.925L218.144 13.25H214.381V44.9688H219.412ZM226.587 31.9313C222.344 31.9313 219.412 28.9125 219.412 24.625C219.412 20.3375 222.344 17.3188 226.587 17.3188C230.787 17.3188 233.675 20.3375 233.675 24.625C233.675 28.9125 230.787 31.9313 226.587 31.9313Z" fill="white"/>
<path d="M253.849 36.4375C258.618 36.4375 263.124 33.9875 264.831 29.2188L260.106 28.4313C259.099 30.4438 256.868 31.8438 254.156 31.8438C250.087 31.8438 247.243 28.8688 247.243 24.625C247.243 20.3813 250.087 17.4063 254.156 17.4063C256.781 17.4063 258.968 18.7625 259.931 20.7313L264.656 19.9438C262.993 15.2625 258.706 12.8125 253.849 12.8125C246.893 12.8125 241.993 17.7563 241.993 24.625C241.993 31.4938 246.893 36.4375 253.849 36.4375Z" fill="white"/>
<g clip-path="url(#clip0_428_625)">
<path d="M12.6749 41.8159H9.53384C8.99172 41.8159 8.55225 42.2554 8.55225 42.7975V47.0184C8.55225 47.5605 8.99172 48 9.53384 48H12.6749C13.2171 48 13.6565 47.5605 13.6565 47.0184V42.7975C13.6565 42.2554 13.2171 41.8159 12.6749 41.8159Z" fill="#9C9C9C"/>
<path d="M23.8649 41.8159H20.7238C20.1817 41.8159 19.7422 42.2554 19.7422 42.7975V47.0184C19.7422 47.5605 20.1817 48 20.7238 48H23.8649C24.407 48 24.8465 47.5605 24.8465 47.0184V42.7975C24.8465 42.2554 24.407 41.8159 23.8649 41.8159Z" fill="#9C9C9C"/>
<path d="M39.6686 41.8159H36.5275C35.9854 41.8159 35.5459 42.2554 35.5459 42.7975V47.0184C35.5459 47.5605 35.9854 48 36.5275 48H39.6686C40.2107 48 40.6502 47.5605 40.6502 47.0184V42.7975C40.6502 42.2554 40.2107 41.8159 39.6686 41.8159Z" fill="#9C9C9C"/>
<path d="M50.859 41.8159H47.7179C47.1758 41.8159 46.7363 42.2554 46.7363 42.7975V47.0184C46.7363 47.5605 47.1758 48 47.7179 48H50.859C51.4012 48 51.8406 47.5605 51.8406 47.0184V42.7975C51.8406 42.2554 51.4012 41.8159 50.859 41.8159Z" fill="#9C9C9C"/>
<path d="M38.7852 4.37598H16.503C15.6899 4.37598 15.0306 5.03519 15.0306 5.84837V25.4803C15.0306 26.2935 15.6899 26.9527 16.503 26.9527H38.7852C39.5984 26.9527 40.2576 26.2935 40.2576 25.4803V5.84837C40.2576 5.03519 39.5984 4.37598 38.7852 4.37598Z" fill="#FECE12"/>
<path d="M38.7855 4.37598H19.0554C18.2422 4.37598 17.583 5.03519 17.583 5.84837V25.4803C17.583 26.2935 18.2422 26.9527 19.0554 26.9527H38.7855C39.5986 26.9527 40.2578 26.2935 40.2578 25.4803V5.84837C40.2578 5.03519 39.5986 4.37598 38.7855 4.37598Z" fill="#FD9115"/>
<path fill-rule="evenodd" clip-rule="evenodd" d="M20.1335 8.28128C19.7782 8.14803 19.5982 7.75197 19.7315 7.39665C19.7315 7.39665 19.7316 7.39619 19.7318 7.39572L19.7319 7.39538C19.732 7.39518 19.7322 7.39479 19.7322 7.39479L19.7323 7.39425L19.7325 7.39387C19.7326 7.39353 19.7327 7.3932 19.7328 7.39286L19.7335 7.39123C19.7338 7.39043 19.7341 7.38959 19.7344 7.38875C19.7353 7.38647 19.7363 7.38406 19.7373 7.38152C19.7375 7.38088 19.7378 7.38023 19.738 7.37958C19.7407 7.37307 19.7437 7.36574 19.7472 7.35764C19.7541 7.34146 19.7629 7.32218 19.7737 7.30029C19.7953 7.25658 19.8252 7.20196 19.8654 7.14044C19.9456 7.01743 20.0681 6.86517 20.2472 6.71899C20.6184 6.41618 21.1776 6.18456 21.9718 6.21511C22.937 6.25224 23.4046 6.85229 23.6912 7.22007L23.7019 7.23384C24.0007 7.61706 24.0827 7.68699 24.3012 7.68699C24.6147 7.68699 24.7594 7.57228 25.1058 7.28263C25.4712 6.97695 25.9872 6.55817 26.9024 6.55816C27.3396 6.55816 27.6971 6.65327 28.0026 6.81173C28.2952 6.96356 28.513 7.16121 28.6682 7.30401C28.9881 7.59832 29.0893 7.68698 29.3564 7.68698C29.681 7.68698 29.9319 7.53706 30.3702 7.24055L30.4105 7.21321C30.8055 6.94538 31.3766 6.55814 32.1539 6.55815C32.9977 6.55816 33.4997 7.00806 33.8227 7.29944C34.1698 7.61244 34.2741 7.68699 34.4608 7.68698C34.6387 7.68698 34.7881 7.58812 35.1711 7.23256C35.1852 7.2194 35.1999 7.20567 35.2151 7.19147C35.526 6.90098 36.0503 6.41092 36.8165 6.41092C37.5494 6.41092 38.0909 6.77863 38.4193 7.09126C38.5863 7.25042 38.7122 7.40793 38.7968 7.52599C38.8395 7.58557 38.8728 7.63659 38.8965 7.67478C38.9084 7.69391 38.9179 7.70996 38.9252 7.72239C38.9288 7.7286 38.9319 7.73393 38.9343 7.7383C38.935 7.73942 38.9356 7.74048 38.9361 7.74148L38.9376 7.74413C38.9381 7.74499 38.9385 7.74577 38.9389 7.7465L38.9395 7.74755L38.9398 7.74803C38.9399 7.74823 38.94 7.74849 38.94 7.74849C39.123 8.08101 39.0016 8.49881 38.6691 8.68169C38.3376 8.86402 37.9214 8.74401 37.7375 8.41378C37.7361 8.41135 37.7333 8.40671 37.7293 8.40012C37.7197 8.38463 37.7031 8.35896 37.6798 8.32651C37.6325 8.26054 37.562 8.17264 37.4714 8.08639C37.2844 7.90825 37.0653 7.78515 36.8165 7.78515C36.6387 7.78515 36.4891 7.88404 36.1061 8.23958C36.0919 8.25279 36.0772 8.26656 36.0619 8.2808C35.7511 8.57129 35.2268 9.06122 34.4608 9.06122C33.7146 9.06123 33.2417 8.62953 32.956 8.36866L32.9559 8.36855C32.9372 8.35157 32.9194 8.33531 32.9024 8.31995C32.5997 8.0469 32.439 7.93238 32.1539 7.93238C31.8293 7.93237 31.5785 8.08229 31.1402 8.3788C31.127 8.38769 31.1137 8.39674 31.1001 8.40593C30.7052 8.67377 30.1339 9.06122 29.3564 9.06122C28.541 9.06122 28.0824 8.63527 27.7867 8.36062C27.7699 8.34502 27.7536 8.32988 27.7378 8.31536C27.5863 8.17597 27.4851 8.0914 27.3697 8.03158C27.2672 7.9784 27.1278 7.93239 26.9024 7.93239C26.4925 7.9324 26.2968 8.07803 25.9874 8.33677C25.9725 8.34919 25.9573 8.36196 25.9418 8.37504L25.9417 8.37514C25.6135 8.65136 25.1264 9.06123 24.3012 9.06123C23.3796 9.06123 22.9207 8.46907 22.6505 8.12042C22.6395 8.10612 22.6287 8.09223 22.6182 8.07881C22.3395 7.72125 22.2176 7.59982 21.9189 7.58833C21.437 7.56979 21.2109 7.70628 21.1159 7.78384C21.0619 7.82784 21.031 7.86884 21.0162 7.89153C21.0121 7.8977 21.0094 7.90239 21.0078 7.90523C20.8654 8.24322 20.4801 8.41124 20.1335 8.28128ZM21.0133 7.89175L21.0141 7.88973C21.0146 7.88854 21.0151 7.88728 21.0156 7.88595C21.0157 7.88576 21.0157 7.88557 21.0158 7.88538C21.0161 7.88452 21.0165 7.88362 21.0169 7.88269L21.0173 7.88139C21.0156 7.88578 21.0139 7.89015 21.0122 7.89448L21.0133 7.89175ZM37.7382 8.41496C37.7387 8.41581 37.7388 8.41595 37.7384 8.41533L37.7382 8.41496Z" fill="#E65C28"/>
<path fill-rule="evenodd" clip-rule="evenodd" d="M20.1335 11.5866C19.7782 11.4533 19.5982 11.0573 19.7315 10.7019C19.7315 10.7019 19.7316 10.7015 19.7318 10.701L19.732 10.7005L19.7322 10.7001C19.7322 10.6998 19.7324 10.6995 19.7325 10.6992C19.7326 10.6989 19.7327 10.6985 19.7328 10.6982L19.7334 10.6966C19.7338 10.6958 19.7341 10.6949 19.7344 10.694C19.7352 10.692 19.7361 10.6899 19.7369 10.6877L19.738 10.6849C19.7407 10.6784 19.7437 10.671 19.7472 10.6629C19.7541 10.6468 19.7629 10.6275 19.7737 10.6056C19.7953 10.5619 19.8252 10.5073 19.8654 10.4457C19.9456 10.3227 20.0681 10.1705 20.2472 10.0243C20.6184 9.72148 21.1776 9.48987 21.9718 9.52041C22.937 9.55754 23.4046 10.1576 23.6912 10.5254L23.7019 10.5391C24.0007 10.9224 24.0827 10.9923 24.3012 10.9923C24.6147 10.9923 24.7594 10.8776 25.1058 10.5879C25.4712 10.2823 25.9872 9.86347 26.9024 9.86347C27.3396 9.86346 27.6971 9.95856 28.0026 10.117C28.2952 10.2689 28.513 10.4665 28.6682 10.6093C28.9881 10.9036 29.0893 10.9923 29.3564 10.9923C29.681 10.9923 29.9319 10.8424 30.3702 10.5459C30.3822 10.5377 30.3944 10.5295 30.4068 10.5211L30.4105 10.5185C30.8055 10.2507 31.3766 9.86344 32.1539 9.86345C32.9977 9.86346 33.4997 10.3134 33.8227 10.6047C34.1698 10.9177 34.2741 10.9923 34.4608 10.9923C34.6387 10.9923 34.7881 10.8934 35.1711 10.5379C35.1852 10.5247 35.1999 10.511 35.215 10.4969L35.2151 10.4968C35.526 10.2063 36.0503 9.71622 36.8165 9.71622C37.5494 9.71622 38.0909 10.0839 38.4193 10.3966C38.5863 10.5557 38.7122 10.7132 38.7968 10.8313C38.8395 10.8909 38.8728 10.9419 38.8965 10.9801C38.9084 10.9992 38.9179 11.0153 38.9252 11.0277C38.9265 11.03 38.9278 11.0321 38.9289 11.0342C38.931 11.0377 38.9328 11.0408 38.9343 11.0436C38.9351 11.0449 38.9357 11.0461 38.9364 11.0472C38.9368 11.048 38.9372 11.0487 38.9376 11.0494C38.938 11.05 38.9383 11.0506 38.9386 11.0512L38.9389 11.0518L38.9395 11.0528L38.9398 11.0533C38.9399 11.0535 38.8965 10.9801 38.8965 10.9801L38.94 11.0538C39.123 11.3863 39.0016 11.8041 38.6691 11.987C38.3376 12.1693 37.9214 12.0493 37.7376 11.7192C37.7362 11.7168 37.7334 11.7121 37.7293 11.7054C37.7197 11.6899 37.7031 11.6643 37.6798 11.6318C37.6325 11.5658 37.562 11.4779 37.4714 11.3917C37.2844 11.2135 37.0653 11.0904 36.8165 11.0904C36.6387 11.0904 36.4891 11.1893 36.1061 11.5449C36.0919 11.5581 36.0772 11.5719 36.0619 11.5861C35.7511 11.8766 35.2268 12.3665 34.4608 12.3665C33.7146 12.3665 33.2417 11.9348 32.956 11.674L32.9558 11.6738C32.9372 11.6568 32.9194 11.6406 32.9024 11.6252C32.5997 11.3522 32.439 11.2377 32.1539 11.2377C31.8293 11.2377 31.5785 11.3876 31.1402 11.6841C31.127 11.693 31.1136 11.7021 31.1001 11.7113C30.7052 11.9791 30.1339 12.3665 29.3564 12.3665C28.541 12.3665 28.0824 11.9406 27.7867 11.6659C27.7699 11.6503 27.7536 11.6352 27.7378 11.6207C27.5863 11.4813 27.4851 11.3967 27.3697 11.3369C27.2672 11.2837 27.1278 11.2377 26.9024 11.2377C26.4925 11.2377 26.2968 11.3833 25.9874 11.6421L25.9738 11.6535C25.9691 11.6574 25.9643 11.6614 25.9595 11.6654C25.9536 11.6704 25.9477 11.6754 25.9417 11.6804C25.6134 11.9567 25.1264 12.3665 24.3012 12.3665C23.3796 12.3665 22.9207 11.7744 22.6505 11.4257C22.6395 11.4114 22.6287 11.3975 22.6182 11.3841C22.3395 11.0265 22.2176 10.9051 21.9189 10.8936C21.437 10.8751 21.2109 11.0116 21.1159 11.0891C21.0619 11.1331 21.031 11.1741 21.0162 11.1968C21.0121 11.203 21.0094 11.2077 21.0078 11.2105C20.8654 11.5485 20.4801 11.7165 20.1335 11.5866ZM21.0122 11.1998L21.0133 11.1971L21.0146 11.1938L21.0156 11.1913L21.0158 11.1908C21.0161 11.1899 21.0164 11.189 21.0169 11.188L21.0173 11.1867C21.0157 11.1911 21.0139 11.1954 21.0122 11.1998ZM37.7386 11.7209C37.7387 11.7211 37.7387 11.721 37.7384 11.7206L37.7386 11.7209Z" fill="#E65C28"/>
<path fill-rule="evenodd" clip-rule="evenodd" d="M20.1335 14.8258C19.7782 14.6926 19.5982 14.2966 19.7315 13.9412C19.7315 13.9412 19.7316 13.9407 19.7318 13.9402C19.7318 13.9402 19.7321 13.9397 19.7322 13.9394C19.7322 13.939 19.7324 13.9387 19.7325 13.9384L19.7326 13.938C19.7327 13.9378 19.7328 13.9376 19.7328 13.9374C19.733 13.937 19.7331 13.9366 19.7333 13.9362C19.7337 13.9353 19.7341 13.9343 19.7344 13.9333C19.7349 13.9321 19.7354 13.931 19.7358 13.9298L19.7372 13.9262L19.738 13.9241C19.7407 13.9177 19.7437 13.9103 19.7472 13.9022C19.7541 13.8861 19.7629 13.8668 19.7737 13.8449C19.7953 13.8011 19.8252 13.7465 19.8654 13.685C19.9456 13.562 20.0681 13.4097 20.2472 13.2636C20.6184 12.9607 21.1776 12.7291 21.9718 12.7597C22.937 12.7968 23.4046 13.3968 23.6912 13.7646L23.7019 13.7784C24.0007 14.1616 24.0827 14.2316 24.3012 14.2316C24.6147 14.2316 24.7594 14.1168 25.1058 13.8272C25.4712 13.5215 25.9872 13.1027 26.9024 13.1027C27.3396 13.1027 27.6971 13.1978 28.0026 13.3563C28.2952 13.5081 28.513 13.7058 28.6682 13.8486C28.9881 14.1428 29.0893 14.2316 29.3564 14.2316C29.681 14.2316 29.9319 14.0816 30.3702 13.7851L30.4105 13.7578C30.8055 13.4899 31.3766 13.1027 32.1539 13.1027C32.9977 13.1027 33.4997 13.5526 33.8227 13.844C34.1698 14.157 34.2741 14.2316 34.4608 14.2316C34.6387 14.2316 34.7881 14.1326 35.1711 13.7771C35.1852 13.764 35.1999 13.7502 35.2151 13.736C35.526 13.4455 36.0503 12.9555 36.8165 12.9555C37.5494 12.9555 38.0909 13.3232 38.4193 13.6358C38.5863 13.795 38.7122 13.9525 38.7968 14.0706C38.8395 14.1301 38.8728 14.1811 38.8965 14.2193C38.9084 14.2385 38.9179 14.2546 38.9252 14.2669L38.9311 14.2771L38.9343 14.2828L38.9357 14.2853L38.9376 14.2887C38.9379 14.2892 38.9382 14.2897 38.9384 14.2902C38.9386 14.2905 38.9388 14.2908 38.9389 14.2911L38.9392 14.2916L38.9395 14.2921L38.9398 14.2926L38.94 14.293C39.123 14.6256 39.0016 15.0434 38.6691 15.2262C38.3382 15.4082 37.9228 15.289 37.7385 14.96C37.7387 14.9603 37.7386 14.9602 37.7386 14.9602L37.7385 14.96L37.7384 14.9599L37.7383 14.9597L37.7381 14.9594C37.7376 14.9585 37.7366 14.9568 37.7352 14.9545C37.7337 14.952 37.7317 14.9487 37.7293 14.9447C37.7197 14.9292 37.7031 14.9035 37.6798 14.8711C37.6325 14.8051 37.562 14.7172 37.4714 14.631C37.2844 14.4528 37.0653 14.3297 36.8165 14.3297C36.6387 14.3297 36.4891 14.4286 36.1061 14.7841C36.0919 14.7973 36.0772 14.8111 36.062 14.8253C35.7511 15.1158 35.2269 15.6058 34.4608 15.6058C33.7147 15.6058 33.2418 15.1742 32.9561 14.9133C32.9374 14.8963 32.9195 14.8799 32.9024 14.8645C32.5997 14.5914 32.439 14.477 32.1539 14.477C31.8293 14.477 31.5785 14.6269 31.1402 14.9234C31.127 14.9323 31.1136 14.9414 31.0999 14.9507C30.705 15.2185 30.1338 15.6058 29.3564 15.6058C28.541 15.6058 28.0824 15.1798 27.7867 14.9052L27.7865 14.905C27.7698 14.8895 27.7536 14.8744 27.7378 14.8599C27.5863 14.7205 27.4851 14.636 27.3697 14.5761C27.2672 14.5229 27.1278 14.477 26.9024 14.477C26.4925 14.477 26.2968 14.6226 25.9874 14.8813C25.9725 14.8938 25.9572 14.9066 25.9416 14.9197C25.6134 15.196 25.1263 15.6058 24.3012 15.6058C23.3796 15.6058 22.9207 15.0136 22.6506 14.665L22.6474 14.6609C22.6374 14.648 22.6277 14.6355 22.6182 14.6233C22.3395 14.2658 22.2176 14.1444 21.9189 14.1329C21.437 14.1144 21.2109 14.2508 21.1159 14.3284C21.0619 14.3724 21.031 14.4134 21.0162 14.4361C21.0121 14.4422 21.0094 14.4469 21.0078 14.4498C20.8654 14.7878 20.4801 14.9559 20.1335 14.8258ZM21.0123 14.4389L21.0133 14.4363L21.0141 14.4344C21.0146 14.4332 21.0151 14.4319 21.0156 14.4306L21.0162 14.429C21.0149 14.4323 21.0136 14.4356 21.0123 14.4389ZM21.0066 14.4519C21.0064 14.4524 21.0062 14.4528 21.0062 14.4528C21.006 14.4531 21.0062 14.4528 21.0066 14.4519ZM21.0173 14.4261L21.0164 14.4283L21.0169 14.4272C21.017 14.4269 21.0171 14.4265 21.0173 14.4261Z" fill="#E65C28"/>
<path fill-rule="evenodd" clip-rule="evenodd" d="M19.7315 17.4268C19.5982 17.7821 19.7782 18.1782 20.1335 18.3115C20.4801 18.4414 20.8654 18.2734 21.0078 17.9354C21.0094 17.9326 21.0121 17.9279 21.0162 17.9217C21.031 17.899 21.0619 17.858 21.1159 17.814C21.2109 17.7365 21.437 17.6 21.9189 17.6185C22.2176 17.63 22.3395 17.7514 22.6182 18.109C22.6286 18.1223 22.6393 18.1361 22.6503 18.1502L22.6505 18.1506C22.9207 18.4993 23.3796 19.0914 24.3012 19.0914C25.1264 19.0914 25.6135 18.6815 25.9417 18.4053C25.9573 18.3922 25.9725 18.3794 25.9874 18.3669C26.2968 18.1082 26.4925 17.9626 26.9024 17.9626C27.1278 17.9626 27.2672 18.0086 27.3697 18.0618C27.4851 18.1216 27.5863 18.2061 27.7378 18.3455C27.746 18.353 27.7542 18.3607 27.7626 18.3684C27.7705 18.3758 27.7786 18.3832 27.7867 18.3908C28.0824 18.6654 28.541 19.0914 29.3564 19.0914C30.1339 19.0914 30.7052 18.7039 31.1001 18.4361L31.101 18.4355C31.1143 18.4265 31.1273 18.4177 31.1402 18.409C31.5785 18.1125 31.8293 17.9625 32.1539 17.9626C32.439 17.9626 32.5997 18.0771 32.9024 18.3501C32.9195 18.3655 32.9373 18.3818 32.956 18.3988C33.2417 18.6597 33.7146 19.0914 34.4608 19.0914C35.2268 19.0914 35.7511 18.6015 36.0619 18.311L36.0623 18.3106C36.0774 18.2965 36.092 18.2829 36.1061 18.2698C36.4891 17.9142 36.6387 17.8153 36.8165 17.8153C37.0653 17.8153 37.2844 17.9384 37.4714 18.1166C37.562 18.2028 37.6325 18.2907 37.6798 18.3567C37.7031 18.3891 37.7197 18.4148 37.7293 18.4303C37.7333 18.4369 37.7361 18.4415 37.7375 18.444C37.9214 18.7742 38.3376 18.8942 38.6691 18.7119C39.0016 18.529 39.123 18.1112 38.94 17.7787L38.9398 17.7782L38.9395 17.7777L38.9389 17.7767L38.9384 17.7756C38.9382 17.7753 38.9381 17.7751 38.9379 17.7748L38.9376 17.7743L38.9364 17.7721C38.9358 17.771 38.9351 17.7698 38.9343 17.7685C38.9319 17.7641 38.9288 17.7588 38.9252 17.7526C38.9179 17.7401 38.9084 17.7241 38.8965 17.705C38.8728 17.6668 38.8395 17.6158 38.7968 17.5562C38.7122 17.4381 38.5863 17.2806 38.4193 17.1214C38.0909 16.8088 37.5494 16.4411 36.8165 16.4411C36.0503 16.4411 35.526 16.9312 35.2151 17.2216C35.1999 17.2358 35.1852 17.2496 35.1711 17.2627C34.7881 17.6183 34.6387 17.7172 34.4608 17.7172C34.2741 17.7172 34.1698 17.6426 33.8227 17.3296C33.4997 17.0382 32.9977 16.5883 32.1539 16.5883C31.3766 16.5883 30.8055 16.9756 30.4105 17.2434C30.3969 17.2527 30.3834 17.2618 30.3702 17.2707C29.9319 17.5672 29.681 17.7172 29.3564 17.7172C29.0893 17.7172 28.9881 17.6285 28.6682 17.3342C28.513 17.1914 28.2952 16.9937 28.0026 16.8419C27.6971 16.6834 27.3396 16.5883 26.9024 16.5883C25.9872 16.5883 25.4712 17.0071 25.1058 17.3128C24.7594 17.6025 24.6147 17.7172 24.3012 17.7172C24.0827 17.7172 24.0007 17.6472 23.7019 17.264L23.6912 17.2502C23.4046 16.8825 22.937 16.2824 21.9718 16.2453C21.1776 16.2147 20.6184 16.4464 20.2472 16.7492C20.0681 16.8953 19.9456 17.0476 19.8654 17.1706C19.8252 17.2321 19.7953 17.2868 19.7737 17.3305C19.7629 17.3524 19.7541 17.3716 19.7472 17.3878C19.7437 17.3959 19.7407 17.4032 19.738 17.4098L19.7373 17.4117C19.7363 17.4143 19.7353 17.4167 19.7344 17.4189C19.7341 17.4197 19.7338 17.4205 19.7335 17.4212L19.7335 17.4214C19.7332 17.422 19.733 17.4225 19.7328 17.423C19.7327 17.4234 19.7326 17.4237 19.7325 17.424L19.7325 17.4241C19.7323 17.4244 19.7322 17.4247 19.7322 17.425C19.7322 17.425 19.732 17.4253 19.732 17.4255L19.7318 17.4259C19.7316 17.4264 19.7315 17.4268 19.7315 17.4268ZM21.0133 17.9219L21.0122 17.9247C21.0139 17.9203 21.0156 17.916 21.0173 17.9116L21.0169 17.9129C21.0164 17.914 21.016 17.9151 21.0156 17.9161C21.0151 17.9174 21.0146 17.9187 21.0142 17.9198L21.0133 17.9219ZM21.0066 17.9376C21.0064 17.938 21.0062 17.9384 21.0062 17.9384C21.006 17.9387 21.0062 17.9384 21.0066 17.9376ZM37.7382 18.4451C37.7387 18.446 37.7388 18.4461 37.7384 18.4455L37.7382 18.4451Z" fill="#E65C28"/>
<path fill-rule="evenodd" clip-rule="evenodd" d="M19.7315 20.7321C19.5982 21.0874 19.7782 21.4835 20.1335 21.6168C20.4801 21.7467 20.8654 21.5787 21.0078 21.2407C21.0094 21.2379 21.0121 21.2332 21.0162 21.227C21.031 21.2043 21.0619 21.1633 21.1159 21.1193C21.2109 21.0418 21.437 20.9053 21.9189 20.9238C22.2176 20.9353 22.3395 21.0567 22.6182 21.4143C22.624 21.4217 22.6298 21.4292 22.6358 21.4368C22.6406 21.4431 22.6456 21.4494 22.6505 21.4559C22.9207 21.8046 23.3796 22.3967 24.3012 22.3967C25.1264 22.3967 25.6134 21.9868 25.9417 21.7106C25.9573 21.6975 25.9725 21.6847 25.9874 21.6722C26.2968 21.4135 26.4925 21.2679 26.9024 21.2679C27.1278 21.2679 27.2672 21.3139 27.3697 21.3671C27.4851 21.4269 27.5863 21.5114 27.7378 21.6508C27.7535 21.6652 27.7696 21.6802 27.7863 21.6957L27.7867 21.6961C28.0824 21.9708 28.541 22.3967 29.3564 22.3967C30.1339 22.3967 30.7052 22.0093 31.1001 21.7414C31.1136 21.7322 31.127 21.7232 31.1402 21.7143C31.5785 21.4178 31.8293 21.2679 32.1539 21.2679C32.439 21.2679 32.5997 21.3824 32.9024 21.6554C32.9194 21.6708 32.9372 21.687 32.9558 21.7039L32.956 21.7041C33.2417 21.965 33.7146 22.3967 34.4608 22.3967C35.2268 22.3967 35.7511 21.9068 36.0619 21.6163C36.0772 21.602 36.0919 21.5883 36.1061 21.5751C36.4891 21.2195 36.6387 21.1206 36.8165 21.1206C37.0653 21.1206 37.2844 21.2437 37.4714 21.4219C37.562 21.5081 37.6325 21.596 37.6798 21.662C37.7031 21.6944 37.7197 21.7201 37.7293 21.7356C37.7334 21.7423 37.7362 21.747 37.7376 21.7494C37.9215 22.0795 38.3376 22.1995 38.6691 22.0172C39.0016 21.8343 39.123 21.4165 38.94 21.084C38.94 21.084 38.9399 21.0837 38.9398 21.0835L38.9395 21.083L38.9389 21.082L38.9383 21.0807C38.9381 21.0804 38.9379 21.08 38.9376 21.0796C38.9367 21.0779 38.9356 21.076 38.9343 21.0738C38.9319 21.0694 38.9288 21.0641 38.9252 21.0579C38.9179 21.0454 38.9084 21.0294 38.8965 21.0103C38.8728 20.9721 38.8395 20.921 38.7968 20.8615C38.7122 20.7434 38.5863 20.5859 38.4193 20.4267C38.0909 20.1141 37.5494 19.7464 36.8165 19.7464C36.0503 19.7464 35.526 20.2365 35.2151 20.5269L35.2147 20.5274C35.1996 20.5414 35.1851 20.555 35.1711 20.568C34.7881 20.9236 34.6387 21.0225 34.4608 21.0225C34.2741 21.0225 34.1698 20.9479 33.8227 20.6349C33.4997 20.3435 32.9977 19.8936 32.1539 19.8936C31.3766 19.8936 30.8055 20.2809 30.4105 20.5487C30.3969 20.5579 30.3834 20.5671 30.3702 20.576C29.9319 20.8725 29.681 21.0225 29.3564 21.0225C29.0893 21.0225 28.9881 20.9338 28.6682 20.6395C28.513 20.4967 28.2952 20.299 28.0026 20.1472C27.6971 19.9887 27.3396 19.8936 26.9024 19.8936C25.9872 19.8936 25.4712 20.3124 25.1058 20.6181C24.7594 20.9078 24.6147 21.0225 24.3012 21.0225C24.0827 21.0225 24.0007 20.9525 23.7019 20.5693L23.6912 20.5555C23.4046 20.1878 22.937 19.5877 21.9718 19.5506C21.1776 19.52 20.6184 19.7517 20.2472 20.0545C20.0681 20.2006 19.9456 20.3529 19.8654 20.4759C19.8252 20.5374 19.7953 20.5921 19.7737 20.6358C19.7629 20.6577 19.7541 20.6769 19.7472 20.6931C19.7437 20.7012 19.7407 20.7085 19.738 20.7151L19.7366 20.7189C19.7358 20.7207 19.7351 20.7225 19.7344 20.7242C19.7341 20.7251 19.7338 20.7259 19.7335 20.7267L19.7328 20.7283C19.7328 20.7286 19.7327 20.7288 19.7326 20.729L19.7325 20.7294C19.7324 20.7297 19.7322 20.73 19.7322 20.7303L19.732 20.7307L19.7318 20.7312L19.7315 20.7321ZM21.0133 21.2272L21.0122 21.23C21.0139 21.2256 21.0157 21.2212 21.0173 21.2168L21.0169 21.2182C21.0164 21.2193 21.016 21.2204 21.0156 21.2214C21.0151 21.2227 21.0146 21.2239 21.0142 21.2251L21.0133 21.2272ZM21.0066 21.2429C21.0064 21.2433 21.0062 21.2437 21.0062 21.2437C21.006 21.244 21.0062 21.2437 21.0066 21.2429ZM37.7386 21.7511C37.7387 21.7513 37.7387 21.7512 37.7384 21.7508L37.7386 21.7511Z" fill="#E65C28"/>
<path d="M44.4787 0H22.0984C21.2852 0 20.626 0.659213 20.626 1.47239V21.1043C20.626 21.9175 21.2852 22.5767 22.0984 22.5767H44.4787C45.2919 22.5767 45.9511 21.9175 45.9511 21.1043V1.47239C45.9511 0.659213 45.2919 0 44.4787 0Z" fill="#FECE12"/>
<path d="M44.4783 0H24.7483C23.9351 0 23.2759 0.659213 23.2759 1.47239V21.1043C23.2759 21.9175 23.9351 22.5767 24.7483 22.5767H44.4783C45.2915 22.5767 45.9507 21.9175 45.9507 21.1043V1.47239C45.9507 0.659213 45.2915 0 44.4783 0Z" fill="#FD9115"/>
<path fill-rule="evenodd" clip-rule="evenodd" d="M25.3835 4.22513C25.0282 4.09188 24.8482 3.69581 24.9815 3.34049C24.9815 3.34049 24.9816 3.34003 24.9818 3.33957L24.9819 3.33922C24.982 3.33903 24.9822 3.33864 24.9822 3.33864L24.9823 3.3381L24.9825 3.33771C24.9826 3.33738 24.9827 3.33705 24.9828 3.33671L24.9835 3.33508C24.9838 3.33427 24.9841 3.33344 24.9844 3.33259C24.9853 3.33032 24.9863 3.32791 24.9873 3.32537C24.9875 3.32473 24.9878 3.32408 24.988 3.32342C24.9907 3.31692 24.9937 3.30958 24.9972 3.30149C25.0041 3.28531 25.0129 3.26603 25.0237 3.24414C25.0453 3.20043 25.0752 3.14581 25.1154 3.08429C25.1956 2.96128 25.3181 2.80902 25.4972 2.66284C25.8684 2.36003 26.4276 2.12841 27.2218 2.15896C28.187 2.19609 28.6546 2.79613 28.9412 3.16391L28.9519 3.17769C29.2507 3.56091 29.3327 3.63084 29.5512 3.63084C29.8647 3.63084 30.0094 3.51613 30.3558 3.22647C30.7212 2.92079 31.2372 2.50202 32.1524 2.50201C32.5896 2.50201 32.9471 2.59711 33.2526 2.75558C33.5452 2.90741 33.763 3.10506 33.9182 3.24786C34.2381 3.54216 34.3393 3.63083 34.6064 3.63083C34.931 3.63083 35.1819 3.48091 35.6202 3.1844L35.6606 3.15706C36.0555 2.88923 36.6266 2.50199 37.4039 2.502C38.2477 2.50201 38.7497 2.95191 39.0728 3.24329C39.4198 3.55629 39.5241 3.63084 39.7108 3.63083C39.8887 3.63083 40.0382 3.53196 40.4211 3.17641C40.4352 3.16324 40.4499 3.14952 40.4651 3.13532C40.776 2.84483 41.3003 2.35477 42.0665 2.35477C42.7994 2.35477 43.3409 2.72247 43.6693 3.03511C43.8363 3.19427 43.9622 3.35177 44.0468 3.46984C44.0895 3.52942 44.1228 3.58044 44.1465 3.61863C44.1584 3.63776 44.1679 3.65381 44.1752 3.66624C44.1788 3.67245 44.1819 3.67778 44.1843 3.68215C44.185 3.68327 44.1856 3.68433 44.1861 3.68533L44.1876 3.68798C44.1881 3.68883 44.1885 3.68962 44.1889 3.69035L44.1895 3.6914L44.1898 3.69188C44.1899 3.69208 44.19 3.69234 44.19 3.69234C44.373 4.02485 44.2516 4.44266 43.9191 4.62554C43.5876 4.80787 43.1714 4.68786 42.9875 4.35763C42.9861 4.3552 42.9833 4.35056 42.9793 4.34397C42.9697 4.32848 42.9531 4.30281 42.9298 4.27036C42.8825 4.20439 42.812 4.11649 42.7214 4.03024C42.5344 3.85209 42.3153 3.729 42.0665 3.729C41.8887 3.729 41.7391 3.82789 41.3561 4.18343C41.3419 4.19664 41.3272 4.2104 41.3119 4.22465C41.0011 4.51514 40.4769 5.00506 39.7108 5.00506C38.9646 5.00507 38.4917 4.57338 38.206 4.3125L38.2059 4.3124C38.1873 4.29542 38.1694 4.27916 38.1524 4.26379C37.8497 3.99074 37.689 3.87623 37.4039 3.87623C37.0793 3.87622 36.8285 4.02614 36.3902 4.32265C36.377 4.33154 36.3637 4.34059 36.3501 4.34978C35.9552 4.61761 35.3839 5.00506 34.6064 5.00506C33.791 5.00506 33.3324 4.57912 33.0367 4.30447C33.0199 4.28887 33.0036 4.27373 32.9878 4.25921C32.8363 4.11981 32.7351 4.03525 32.6197 3.97543C32.5172 3.92225 32.3778 3.87624 32.1524 3.87624C31.7425 3.87625 31.5468 4.02188 31.2374 4.28062C31.2225 4.29304 31.2073 4.30581 31.1918 4.31889L31.1917 4.31899C30.8635 4.5952 30.3764 5.00507 29.5512 5.00507C28.6296 5.00507 28.1707 4.41292 27.9005 4.06426C27.8895 4.04997 27.8787 4.03608 27.8682 4.02265C27.5895 3.6651 27.4676 3.54367 27.1689 3.53218C26.687 3.51364 26.4609 3.65013 26.3659 3.72769C26.3119 3.77169 26.281 3.81269 26.2662 3.83538C26.2621 3.84154 26.2594 3.84624 26.2578 3.84907C26.1154 4.18707 25.7301 4.35508 25.3835 4.22513ZM26.2633 3.8356L26.2641 3.83358C26.2646 3.83238 26.2651 3.83112 26.2656 3.8298C26.2657 3.82961 26.2657 3.82942 26.2658 3.82923C26.2661 3.82836 26.2665 3.82747 26.2669 3.82654L26.2673 3.82524C26.2656 3.82963 26.2639 3.83399 26.2622 3.83833L26.2633 3.8356ZM42.9882 4.35881C42.9887 4.35966 42.9888 4.3598 42.9884 4.35917L42.9882 4.35881Z" fill="#E65C28"/>
<path fill-rule="evenodd" clip-rule="evenodd" d="M25.3835 7.53042C25.0282 7.39718 24.8482 7.00111 24.9815 6.64579C24.9815 6.64579 24.9816 6.64531 24.9818 6.64488L24.982 6.64436L24.9822 6.64394C24.9822 6.64364 24.9824 6.64334 24.9825 6.64304C24.9826 6.6427 24.9827 6.64235 24.9828 6.642L24.9834 6.64044C24.9838 6.63962 24.9841 6.63875 24.9844 6.63789C24.9852 6.63589 24.9861 6.63379 24.9869 6.63159L24.988 6.62873C24.9907 6.62221 24.9937 6.61488 24.9972 6.60678C25.0041 6.59061 25.0129 6.57134 25.0237 6.54945C25.0453 6.50573 25.0752 6.4511 25.1154 6.38959C25.1956 6.26657 25.3181 6.11432 25.4972 5.96814C25.8684 5.66532 26.4276 5.43372 27.2218 5.46425C28.187 5.50138 28.6546 6.10143 28.9412 6.46921L28.9519 6.48298C29.2507 6.86621 29.3327 6.93615 29.5512 6.93615C29.8647 6.93615 30.0094 6.82143 30.3558 6.53177C30.7212 6.2261 31.2372 5.80731 32.1524 5.80731C32.5896 5.8073 32.9471 5.90241 33.2526 6.06088C33.5452 6.21271 33.763 6.41036 33.9182 6.55317C34.2381 6.84746 34.3393 6.93614 34.6064 6.93614C34.931 6.93614 35.1819 6.78621 35.6202 6.4897C35.6322 6.48157 35.6444 6.4733 35.6568 6.46491L35.6605 6.46235C36.0555 6.19453 36.6266 5.80728 37.4039 5.80729C38.2477 5.8073 38.7497 6.25722 39.0728 6.54858C39.4198 6.86158 39.5241 6.93614 39.7108 6.93614C39.8887 6.93614 40.0382 6.83726 40.4211 6.48171C40.4352 6.46857 40.4499 6.45488 40.465 6.44072L40.4651 6.44062C40.776 6.15013 41.3003 5.66006 42.0665 5.66006C42.7994 5.66006 43.3409 6.02777 43.6693 6.34041C43.8363 6.49957 43.9622 6.65707 44.0468 6.77515C44.0895 6.83472 44.1228 6.88573 44.1465 6.92393C44.1584 6.94307 44.1679 6.95911 44.1752 6.97153C44.1765 6.97381 44.1778 6.97598 44.1789 6.97801C44.181 6.98153 44.1828 6.98468 44.1843 6.98744C44.1851 6.98873 44.1857 6.98992 44.1864 6.99103C44.1868 6.99182 44.1872 6.99257 44.1876 6.99328C44.188 6.99389 44.1883 6.99446 44.1886 6.99501L44.1889 6.99565L44.1895 6.99669L44.1898 6.99718C44.1899 6.99738 44.1465 6.92393 44.1465 6.92393L44.19 6.99764C44.373 7.33015 44.2516 7.74795 43.9191 7.93084C43.5876 8.11315 43.1714 7.99317 42.9876 7.66301C42.9862 7.66061 42.9834 7.65593 42.9793 7.64928C42.9697 7.63379 42.9531 7.60812 42.9298 7.57567C42.8825 7.50969 42.812 7.42179 42.7214 7.33555C42.5344 7.15739 42.3153 7.0343 42.0665 7.0343C41.8887 7.0343 41.7391 7.13318 41.3561 7.48873C41.3419 7.50193 41.3272 7.5157 41.3119 7.52995C41.0011 7.82045 40.4768 8.31037 39.7108 8.31037C38.9646 8.31037 38.4917 7.87867 38.206 7.6178L38.2058 7.6176C38.1872 7.60066 38.1694 7.58443 38.1524 7.56909C37.8497 7.29604 37.689 7.18153 37.4039 7.18153C37.0793 7.18153 36.8285 7.33144 36.3902 7.62795C36.377 7.63685 36.3636 7.64591 36.3501 7.65511C35.9552 7.92294 35.3839 8.31037 34.6064 8.31037C33.791 8.31037 33.3324 7.88442 33.0367 7.60977C33.0199 7.59416 33.0036 7.57903 32.9878 7.56451C32.8363 7.42511 32.7351 7.34055 32.6197 7.28073C32.5172 7.22754 32.3778 7.18155 32.1524 7.18155C31.7425 7.18155 31.5468 7.32717 31.2374 7.58591L31.2238 7.5973C31.2191 7.60126 31.2143 7.60524 31.2095 7.60926C31.2036 7.61422 31.1977 7.61923 31.1917 7.62429C30.8634 7.90051 30.3764 8.31038 29.5512 8.31038C28.6296 8.31038 28.1707 7.71822 27.9005 7.36957C27.8895 7.35527 27.8787 7.34137 27.8682 7.32795C27.5895 6.97039 27.4676 6.84896 27.1689 6.83748C26.687 6.81893 26.4609 6.95543 26.3659 7.03298C26.3119 7.07699 26.281 7.11799 26.2662 7.14067C26.2621 7.14685 26.2594 7.15154 26.2578 7.15438C26.1154 7.49238 25.7301 7.66038 25.3835 7.53042ZM26.2622 7.14363L26.2633 7.1409L26.2646 7.1376L26.2656 7.13511L26.2658 7.13465C26.2661 7.13374 26.2664 7.1328 26.2669 7.13185L26.2673 7.13052C26.2657 7.13491 26.2639 7.13929 26.2622 7.14363ZM42.9886 7.66476C42.9887 7.66496 42.9887 7.66486 42.9884 7.66448L42.9886 7.66476Z" fill="#E65C28"/>
<path fill-rule="evenodd" clip-rule="evenodd" d="M25.3835 10.7697C25.0282 10.6365 24.8482 10.2404 24.9815 9.88507C24.9815 9.88507 24.9816 9.88458 24.9818 9.88409C24.9818 9.88409 24.9821 9.8835 24.9822 9.88321C24.9822 9.88287 24.9824 9.88255 24.9825 9.88223L24.9826 9.88189C24.9827 9.88168 24.9828 9.88147 24.9828 9.88125C24.983 9.88087 24.9831 9.88047 24.9833 9.88008C24.9837 9.87914 24.9841 9.87816 24.9844 9.87712C24.9849 9.87598 24.9854 9.87481 24.9858 9.8736L24.9872 9.87003L24.988 9.868C24.9907 9.86152 24.9937 9.85415 24.9972 9.84601C25.0041 9.82991 25.0129 9.8106 25.0237 9.78871C25.0453 9.74499 25.0752 9.69037 25.1154 9.62886C25.1956 9.50584 25.3181 9.35358 25.4972 9.2074C25.8684 8.90459 26.4276 8.67298 27.2218 8.70352C28.187 8.74065 28.6546 9.34069 28.9412 9.70847L28.9519 9.72225C29.2507 10.1054 29.3327 10.1754 29.5512 10.1754C29.8647 10.1754 30.0094 10.0607 30.3558 9.77103C30.7212 9.46536 31.2372 9.04658 32.1524 9.04658C32.5896 9.04657 32.9471 9.14167 33.2526 9.30014C33.5452 9.45197 33.763 9.64962 33.9182 9.79243C34.2381 10.0867 34.3393 10.1754 34.6064 10.1754C34.931 10.1754 35.1819 10.0254 35.6202 9.72896L35.6606 9.70162C36.0555 9.43379 36.6266 9.04655 37.4039 9.04656C38.2477 9.04657 38.7497 9.49648 39.0728 9.78785C39.4198 10.1008 39.5241 10.1754 39.7108 10.1754C39.8887 10.1754 40.0382 10.0765 40.4211 9.72097C40.4352 9.7078 40.4499 9.69408 40.4651 9.67988C40.776 9.38939 41.3003 8.89933 42.0665 8.89933C42.7994 8.89933 43.3409 9.26703 43.6693 9.57967C43.8363 9.73884 43.9622 9.89636 44.0468 10.0144C44.0895 10.0739 44.1228 10.125 44.1465 10.1632C44.1584 10.1823 44.1679 10.1984 44.1752 10.2108L44.1811 10.221L44.1843 10.2267L44.1857 10.2292L44.1876 10.2326C44.1879 10.233 44.1882 10.2335 44.1884 10.234C44.1886 10.2343 44.1888 10.2346 44.1889 10.2349L44.1892 10.2354L44.1895 10.236L44.1898 10.2365L44.19 10.2369C44.373 10.5694 44.2516 10.9872 43.9191 11.1701C43.5882 11.3521 43.1728 11.2329 42.9885 10.9039C42.9887 10.9041 42.9886 10.9041 42.9886 10.9041L42.9885 10.9039L42.9884 10.9038L42.9883 10.9035L42.9881 10.9033C42.9876 10.9023 42.9866 10.9007 42.9852 10.8983C42.9837 10.8958 42.9817 10.8925 42.9793 10.8886C42.9697 10.8731 42.9531 10.8473 42.9298 10.8149C42.8825 10.749 42.812 10.661 42.7214 10.5748C42.5344 10.3967 42.3153 10.2736 42.0665 10.2736C41.8887 10.2736 41.7391 10.3724 41.3561 10.728C41.3419 10.7412 41.3272 10.7549 41.312 10.7692C41.0011 11.0597 40.4769 11.5497 39.7108 11.5497C38.9647 11.5497 38.4918 11.118 38.2061 10.8572C38.1874 10.8401 38.1695 10.8238 38.1524 10.8084C37.8497 10.5353 37.689 10.4208 37.4039 10.4208C37.0793 10.4208 36.8285 10.5707 36.3902 10.8673C36.377 10.8762 36.3636 10.8853 36.35 10.8945C35.955 11.1623 35.3838 11.5497 34.6064 11.5497C33.791 11.5497 33.3324 11.1237 33.0367 10.849L33.0366 10.8489C33.0198 10.8333 33.0036 10.8182 32.9878 10.8037C32.8363 10.6644 32.7351 10.5798 32.6197 10.52C32.5172 10.4668 32.3778 10.4208 32.1524 10.4208C31.7425 10.4208 31.5468 10.5664 31.2374 10.8251C31.2225 10.8376 31.2072 10.8505 31.1916 10.8636C30.8634 11.1398 30.3763 11.5497 29.5512 11.5497C28.6296 11.5497 28.1707 10.9575 27.9006 10.6088L27.8974 10.6047C27.8874 10.5919 27.8777 10.5793 27.8682 10.5672C27.5895 10.2097 27.4676 10.0883 27.1689 10.0768C26.687 10.0582 26.4609 10.1947 26.3659 10.2722C26.3119 10.3163 26.281 10.3572 26.2662 10.3799C26.2621 10.3861 26.2594 10.3908 26.2578 10.3936C26.1154 10.7317 25.7301 10.8997 25.3835 10.7697ZM26.2623 10.3828L26.2633 10.3802L26.2641 10.3783C26.2646 10.377 26.2651 10.3757 26.2656 10.3744L26.2662 10.3728C26.2649 10.3762 26.2636 10.3795 26.2623 10.3828ZM26.2566 10.3958C26.2564 10.3962 26.2562 10.3967 26.2562 10.3967C26.256 10.397 26.2562 10.3966 26.2566 10.3958ZM26.2673 10.3699L26.2664 10.3721L26.2669 10.3711C26.267 10.3707 26.2671 10.3703 26.2673 10.3699Z" fill="#E65C28"/>
<path fill-rule="evenodd" clip-rule="evenodd" d="M24.9815 13.3707C24.8482 13.726 25.0282 14.1221 25.3835 14.2553C25.7301 14.3853 26.1154 14.2172 26.2578 13.8792C26.2594 13.8764 26.2621 13.8717 26.2662 13.8656C26.281 13.8429 26.3119 13.8019 26.3659 13.7579C26.4609 13.6803 26.687 13.5438 27.1689 13.5624C27.4676 13.5738 27.5895 13.6953 27.8682 14.0528C27.8786 14.0661 27.8893 14.0799 27.9003 14.0941L27.9005 14.0944C28.1707 14.4431 28.6296 15.0352 29.5512 15.0352C30.3764 15.0352 30.8635 14.6254 31.1917 14.3492C31.2073 14.336 31.2225 14.3232 31.2374 14.3108C31.5468 14.0521 31.7425 13.9064 32.1524 13.9064C32.3778 13.9064 32.5172 13.9524 32.6197 14.0056C32.7351 14.0654 32.8363 14.15 32.9878 14.2894C32.996 14.2969 33.0042 14.3045 33.0126 14.3123C33.0205 14.3196 33.0286 14.3271 33.0367 14.3346C33.3324 14.6093 33.791 15.0352 34.6064 15.0352C35.3839 15.0352 35.9552 14.6478 36.3501 14.38L36.351 14.3793C36.3643 14.3704 36.3773 14.3615 36.3902 14.3528C36.8285 14.0563 37.0793 13.9064 37.4039 13.9064C37.689 13.9064 37.8497 14.0209 38.1524 14.294C38.1695 14.3094 38.1873 14.3257 38.206 14.3427C38.4917 14.6036 38.9646 15.0352 39.7108 15.0352C40.4768 15.0352 41.0011 14.5453 41.3119 14.2548L41.3123 14.2545C41.3274 14.2404 41.342 14.2267 41.3561 14.2136C41.7391 13.8581 41.8887 13.7592 42.0665 13.7592C42.3153 13.7592 42.5344 13.8823 42.7214 14.0604C42.812 14.1467 42.8825 14.2346 42.9298 14.3005C42.9531 14.333 42.9697 14.3587 42.9793 14.3741C42.9833 14.3807 42.9861 14.3854 42.9875 14.3878C43.1714 14.718 43.5876 14.838 43.9191 14.6557C44.2516 14.4728 44.373 14.055 44.19 13.7225L44.1898 13.7221L44.1895 13.7216L44.1889 13.7205L44.1884 13.7195C44.1882 13.7192 44.1881 13.7189 44.1879 13.7186L44.1876 13.7182L44.1864 13.716C44.1858 13.7148 44.1851 13.7136 44.1843 13.7123C44.1819 13.708 44.1788 13.7026 44.1752 13.6964C44.1679 13.684 44.1584 13.6679 44.1465 13.6488C44.1228 13.6106 44.0895 13.5596 44.0468 13.5C43.9622 13.3819 43.8363 13.2244 43.6693 13.0653C43.3409 12.7526 42.7994 12.3849 42.0665 12.3849C41.3003 12.3849 40.776 12.875 40.4651 13.1655C40.4499 13.1797 40.4352 13.1934 40.4211 13.2066C40.0382 13.5621 39.8887 13.661 39.7108 13.661C39.5241 13.661 39.4198 13.5865 39.0728 13.2735C38.7497 12.9821 38.2477 12.5322 37.4039 12.5322C36.6266 12.5322 36.0555 12.9194 35.6606 13.1872C35.6469 13.1965 35.6334 13.2056 35.6202 13.2146C35.1819 13.5111 34.931 13.661 34.6064 13.661C34.3393 13.661 34.2381 13.5723 33.9182 13.278C33.763 13.1352 33.5452 12.9376 33.2526 12.7858C32.9471 12.6273 32.5896 12.5322 32.1524 12.5322C31.2372 12.5322 30.7212 12.951 30.3558 13.2566C30.0094 13.5463 29.8647 13.661 29.5512 13.661C29.3327 13.661 29.2507 13.5911 28.9519 13.2079L28.9412 13.1941C28.6546 12.8263 28.187 12.2263 27.2218 12.1891C26.4276 12.1586 25.8684 12.3902 25.4972 12.693C25.3181 12.8392 25.1956 12.9914 25.1154 13.1145C25.0752 13.176 25.0453 13.2306 25.0237 13.2743C25.0129 13.2962 25.0041 13.3155 24.9972 13.3317C24.9937 13.3398 24.9907 13.3471 24.988 13.3536L24.9873 13.3556C24.9863 13.3581 24.9853 13.3605 24.9844 13.3628C24.9841 13.3636 24.9838 13.3643 24.9835 13.3651L24.9835 13.3653C24.9832 13.3658 24.983 13.3664 24.9828 13.3669C24.9827 13.3672 24.9826 13.3675 24.9825 13.3679L24.9825 13.368C24.9823 13.3682 24.9822 13.3685 24.9822 13.3688C24.9822 13.3688 24.982 13.3691 24.982 13.3693L24.9818 13.3697C24.9816 13.3702 24.9815 13.3707 24.9815 13.3707ZM26.2633 13.8658L26.2622 13.8685C26.2639 13.8642 26.2656 13.8598 26.2673 13.8554L26.2669 13.8567C26.2664 13.8578 26.266 13.8589 26.2656 13.86C26.2651 13.8613 26.2646 13.8625 26.2642 13.8637L26.2633 13.8658ZM26.2566 13.8814C26.2564 13.8819 26.2562 13.8823 26.2562 13.8823C26.256 13.8825 26.2562 13.8822 26.2566 13.8814ZM42.9882 14.389C42.9887 14.3898 42.9888 14.39 42.9884 14.3893L42.9882 14.389Z" fill="#E65C28"/>
<path fill-rule="evenodd" clip-rule="evenodd" d="M24.9815 16.676C24.8482 17.0313 25.0282 17.4274 25.3835 17.5606C25.7301 17.6906 26.1154 17.5225 26.2578 17.1846C26.2594 17.1817 26.2621 17.177 26.2662 17.1708C26.281 17.1482 26.3119 17.1072 26.3659 17.0632C26.4609 16.9856 26.687 16.8491 27.1689 16.8677C27.4676 16.8791 27.5895 17.0006 27.8682 17.3581C27.874 17.3655 27.8798 17.373 27.8858 17.3807C27.8906 17.3869 27.8956 17.3933 27.9005 17.3997C28.1707 17.7484 28.6296 18.3406 29.5512 18.3406C30.3764 18.3406 30.8634 17.9307 31.1917 17.6545C31.2073 17.6414 31.2225 17.6285 31.2374 17.6161C31.5468 17.3573 31.7425 17.2117 32.1524 17.2117C32.3778 17.2117 32.5172 17.2577 32.6197 17.3109C32.7351 17.3707 32.8363 17.4553 32.9878 17.5947C33.0035 17.6091 33.0197 17.6241 33.0363 17.6396L33.0367 17.6399C33.3324 17.9146 33.791 18.3405 34.6064 18.3405C35.3839 18.3405 35.9552 17.9531 36.3501 17.6853C36.3636 17.6761 36.377 17.667 36.3902 17.6581C36.8285 17.3616 37.0793 17.2117 37.4039 17.2117C37.689 17.2117 37.8497 17.3262 38.1524 17.5993C38.1694 17.6146 38.1872 17.6308 38.2058 17.6478L38.206 17.648C38.4917 17.9088 38.9646 18.3405 39.7108 18.3405C40.4768 18.3405 41.0011 17.8506 41.3119 17.5601C41.3272 17.5459 41.3419 17.5321 41.3561 17.5189C41.7391 17.1634 41.8887 17.0645 42.0665 17.0645C42.3153 17.0645 42.5344 17.1876 42.7214 17.3657C42.812 17.452 42.8825 17.5399 42.9298 17.6058C42.9531 17.6383 42.9697 17.664 42.9793 17.6794C42.9834 17.6861 42.9862 17.6908 42.9876 17.6932C43.1715 18.0234 43.5877 18.1433 43.9191 17.961C44.2516 17.7781 44.373 17.3603 44.19 17.0278C44.19 17.0278 44.1899 17.0276 44.1898 17.0274L44.1895 17.0269L44.1889 17.0258L44.1883 17.0246C44.1881 17.0242 44.1879 17.0238 44.1876 17.0234C44.1867 17.0218 44.1856 17.0198 44.1843 17.0176C44.1819 17.0133 44.1788 17.0079 44.1752 17.0017C44.1679 16.9893 44.1584 16.9732 44.1465 16.9541C44.1228 16.9159 44.0895 16.8649 44.0468 16.8053C43.9622 16.6872 43.8363 16.5297 43.6693 16.3706C43.3409 16.0579 42.7994 15.6902 42.0665 15.6902C41.3003 15.6902 40.776 16.1803 40.4651 16.4708L40.4647 16.4712C40.4496 16.4853 40.4351 16.4989 40.4211 16.5119C40.0382 16.8674 39.8887 16.9663 39.7108 16.9663C39.5241 16.9663 39.4198 16.8918 39.0728 16.5788C38.7497 16.2874 38.2477 15.8375 37.4039 15.8375C36.6266 15.8375 36.0555 16.2247 35.6605 16.4925C35.6469 16.5018 35.6334 16.5109 35.6202 16.5199C35.1819 16.8164 34.931 16.9663 34.6064 16.9663C34.3393 16.9663 34.2381 16.8776 33.9182 16.5833C33.763 16.4405 33.5452 16.2429 33.2526 16.0911C32.9471 15.9326 32.5896 15.8375 32.1524 15.8375C31.2372 15.8375 30.7212 16.2563 30.3558 16.5619C30.0094 16.8516 29.8647 16.9663 29.5512 16.9663C29.3327 16.9663 29.2507 16.8964 28.9519 16.5132L28.9412 16.4994C28.6546 16.1316 28.187 15.5316 27.2218 15.4944C26.4276 15.4639 25.8684 15.6955 25.4972 15.9983C25.3181 16.1445 25.1956 16.2967 25.1154 16.4198C25.0752 16.4813 25.0453 16.5359 25.0237 16.5796C25.0129 16.6015 25.0041 16.6208 24.9972 16.637C24.9937 16.6451 24.9907 16.6524 24.988 16.6589L24.9866 16.6627C24.9858 16.6646 24.9851 16.6664 24.9844 16.6681C24.9841 16.6689 24.9838 16.6698 24.9835 16.6706L24.9828 16.6722C24.9828 16.6724 24.9827 16.6727 24.9826 16.6729L24.9825 16.6732C24.9824 16.6735 24.9822 16.6738 24.9822 16.6741L24.982 16.6746L24.9818 16.6751L24.9815 16.676ZM26.2633 17.1711L26.2622 17.1738C26.2639 17.1695 26.2657 17.1651 26.2673 17.1607L26.2669 17.162C26.2664 17.1631 26.266 17.1642 26.2656 17.1653C26.2651 17.1666 26.2646 17.1678 26.2642 17.1689L26.2633 17.1711ZM26.2566 17.1868C26.2564 17.1872 26.2562 17.1876 26.2562 17.1876C26.256 17.1878 26.2562 17.1875 26.2566 17.1868ZM42.9886 17.6949C42.9887 17.6951 42.9887 17.695 42.9884 17.6947L42.9886 17.6949Z" fill="#E65C28"/>
<path d="M6 18.0614C6 14.0497 9.25211 10.7976 13.2638 10.7976H46.7362C50.7479 10.7976 54 14.0497 54 18.0614V43.9755C54 44.7887 53.3408 45.4479 52.5276 45.4479H7.27607C6.57132 45.4479 6 44.8766 6 44.1718V18.0614Z" fill="#B4B4B4"/>
<path d="M22 18.0614C22 14.0497 25.2521 10.7976 29.2638 10.7976H46.7362C50.7479 10.7976 54 14.0497 54 18.0614V43.9755C54 44.7887 53.3408 45.4479 52.5276 45.4479H22V18.0614Z" fill="#C4C4C4"/>
<path d="M6 43.7793H22V45.448H6.83436C6.37355 45.448 6 45.0744 6 44.6137V43.7793Z" fill="#C4C4C4"/>
<path d="M13.2637 36.6135H15.1288C15.6709 36.6135 16.1104 36.1741 16.1104 35.6319L16.1104 20.5154C16.1104 19.9732 15.6709 19.5338 15.1288 19.5338H13.2637C12.7216 19.5338 12.2821 19.9732 12.2821 20.5154L12.2821 35.6319C12.2821 36.1741 12.7216 36.6135 13.2637 36.6135Z" fill="#2F2F2F"/>
<path d="M15.5217 23.2668C16.3891 23.2668 17.0923 22.5637 17.0923 21.6963C17.0923 20.8289 16.3891 20.1257 15.5217 20.1257H9.14137C8.27397 20.1257 7.57081 20.8289 7.57081 21.6963C7.57081 22.5637 8.27397 23.2668 9.14137 23.2668H15.5217Z" fill="#4A4A4A"/>
<path d="M12.4782 23.2668C13.3455 23.2668 14.0487 22.5637 14.0487 21.6963C14.0487 20.8289 13.3455 20.1257 12.4782 20.1257H9.14073C8.27334 20.1257 7.57018 20.8289 7.57018 21.6963C7.57018 22.5637 8.27334 23.2668 9.14073 23.2668H12.4782Z" fill="#808080"/>
<path d="M39.4829 35.0918C32.8878 35.0918 29.1261 29.915 28.9694 21.3005H32.2729C32.3815 27.6233 34.8169 30.3015 36.746 30.8537V21.3005H39.8568V26.7536C41.7618 26.5189 43.7631 24.034 44.4382 21.3005H47.5489C47.0305 24.669 44.8603 27.1539 43.317 28.1755C44.8603 29.0038 47.3321 31.1713 48.2724 35.0918H44.8482C44.1127 32.4689 42.2802 30.4395 39.8568 30.1635V35.0918H39.4829Z" fill="#2F2F2F"/>
</g>
<path d="M280.512 16.7987V14.5839H273.476V2.60403H271V16.7987H280.512Z" fill="white"/>
<path d="M283.458 4.83893C284.304 4.83893 284.923 4.25503 284.923 3.42953C284.923 2.60403 284.304 2 283.458 2C282.591 2 281.972 2.60403 281.972 3.42953C281.972 4.25503 282.591 4.83893 283.458 4.83893ZM284.634 16.7987V6.32886H282.261V16.7987H284.634Z" fill="white"/>
<path d="M291.606 14.7852C290.801 14.7852 290.409 14.4027 290.409 13.6174V8.34228H293.607V6.32886H290.409V3.30872H288.635L288.036 6.32886H286.282V8.34228H288.036V13.6174C288.036 15.6711 289.254 16.7987 291.606 16.7987H293.607L293.813 14.7852H291.606Z" fill="white"/>
<path d="M306 11.443C306 8.42282 303.689 6.12752 300.429 6.12752C297.169 6.12752 294.858 8.40268 294.858 11.5638C294.858 14.7248 297.169 17 300.429 17C302.657 17 304.762 15.9732 305.567 13.9799L303.338 13.6174C302.822 14.3624 301.832 14.8859 300.573 14.8859C298.758 14.8859 297.561 13.7987 297.334 12.1879H305.959C305.979 11.9664 306 11.7248 306 11.443ZM300.429 8.14094C301.915 8.14094 303.029 9.06711 303.421 10.3758H297.478C297.87 9.02684 298.985 8.14094 300.429 8.14094Z" fill="white"/>
<defs>
<clipPath id="clip0_428_625">
<rect width="48" height="48" fill="white" transform="translate(6)"/>
</clipPath>
</defs>
</svg>
