<svg xmlns="http://www.w3.org/2000/svg" width="1920" height="1920" viewBox="0 0 1920 1920">
  <g fill="none" fill-rule="evenodd">
    <!-- android bitmap: convert RGB (#5181B8) -> BGR #B88151() -->
    <path fill="#B88151" d="M66.56,0 C120.32,0 71.68,0 125.44,0 C179.2,0 192,12.8 192,66.56 C192,120.32 192,71.68 192,125.44 C192,179.2 179.2,192 125.44,192 C71.68,192 120.32,192 66.56,192 C12.8,192 0,179.2 0,125.44 C0,71.68 0,96.580329 0,66.56 C0,12.8 12.8,0 66.56,0 Z"/>
    <path fill="#FFFFFF" d="M157.233993,66.1462211 C158.123557,63.1797719 157.233994,61 153.000244,61 L139.000244,61 C135.440505,61 133.799415,62.8830035 132.909356,64.9593945 C132.909356,64.9593945 125.789878,82.3129373 115.704198,93.5851974 C112.441227,96.8481681 110.957879,97.8863636 109.178009,97.8863636 C108.288198,97.8863636 107,96.8481681 107,93.8819658 L107,66.1462211 C107,62.586482 105.96694,61 103.000244,61 L81.0002441,61 C78.7757158,61 77.4378669,62.6521562 77.4378669,64.2179674 C77.4378669,67.5925348 82.4804603,68.3707494 83.0002441,77.8633869 L83.0002441,98.4799003 C83.0002441,103 82.1839388,103.819509 80.4040693,103.819509 C75.6579974,103.819509 64.1131647,86.388441 57.2660122,66.4427426 C55.9241353,62.5659897 54.5782535,61 51.0002441,61 L37.0002441,61 C33.0002441,61 32.2001953,62.8830035 32.2001953,64.9593945 C32.2001953,68.6675178 36.9465141,87.059256 54.2998099,111.383646 C65.8685915,127.995268 82.1682449,137 97.0002441,137 C105.899345,137 107.000244,135 107.000244,131.555007 L107.000244,119 C107.000244,115 107.843292,114.201711 110.661357,114.201711 C112.737749,114.201711 116.297488,115.239906 124.603545,123.249196 C134.095936,132.741586 135.660882,137 141.000244,137 L155.000244,137 C159.000244,137 161.000244,135 159.846475,131.053112 C158.583906,127.119411 154.051802,121.412135 148.038124,114.646617 C144.774906,110.790356 139.88045,106.637574 138.397102,104.560689 C136.320711,101.891255 136.914001,100.704429 138.397102,98.3315162 C138.397102,98.3315162 155.454123,74.3036478 157.233993,66.1462211 Z"/>
  </g>
</svg>
